<svg width="35" height="35" viewBox="0 0 35 35" fill="none" xmlns="http://www.w3.org/2000/svg">
    <rect width="35" height="35" rx="5" fill="white" />
    <g filter="url(#filter0_d_29_103)">
        <path
            d="M19.3399 9.45099C19.4493 9.49203 19.5553 9.62461 19.5752 9.73825C19.5885 9.82033 19.5487 9.98132 19.4128 10.3664C19.0914 11.2756 18.9787 11.8722 18.982 12.6077C18.982 13.037 18.9952 13.1727 19.0549 13.3811C19.1311 13.6494 19.3068 14.0282 19.4128 14.1513L19.4758 14.2239L19.5189 14.0882C19.731 13.4032 20.2712 12.5856 20.7849 12.1689C21.1528 11.8722 21.4345 11.7143 21.63 11.6986C21.7791 11.6859 21.8123 11.6954 21.9051 11.7775C22.0443 11.8943 22.0675 12.0142 22.0178 12.3678C21.9382 12.9581 21.9879 13.5263 22.1603 13.9145C22.5812 14.871 22.6707 15.2246 22.6938 16.0169C22.7137 16.6577 22.6806 16.926 22.5215 17.4532C22.2796 18.2455 21.7294 18.9495 20.8843 19.5492C20.5198 19.8081 19.8105 20.1869 19.7708 20.1459C19.7641 20.1395 19.8039 20.0164 19.8536 19.8681C20.1883 18.9147 19.9795 18.1635 18.9986 16.7903C18.7069 16.3831 18.1766 15.7265 17.9314 15.4708C17.6298 15.1551 17.3713 15.1551 17.0697 15.4708C16.4002 16.1684 15.5187 17.4185 15.237 18.0688C14.9453 18.738 14.9221 19.2209 15.1442 19.8617C15.1972 20.0101 15.2204 20.1206 15.2005 20.1206C15.1342 20.1206 14.5277 19.786 14.2494 19.5966C13.8981 19.3598 13.2916 18.7885 13.0364 18.4602C12.7182 18.0467 12.4365 17.3017 12.3338 16.6009C12.2774 16.2316 12.2841 15.4803 12.347 15.1141C12.5061 14.1545 12.8872 13.3369 13.5236 12.5919C13.7622 12.311 13.9942 12.1121 14.1002 12.0837C14.3653 12.0205 14.5476 12.1657 14.6603 12.5319C14.8094 13.0149 15.0878 13.5547 15.3695 13.9051L15.4955 14.0629L15.5021 13.9272C15.5386 13.3148 15.5916 12.8286 15.6479 12.5603C16.0025 10.8968 17.1393 9.79192 18.8328 9.46678C19.1145 9.41311 19.2405 9.40996 19.3399 9.45099Z"
            fill="#E8AA14" />
        <path
            d="M17.8186 16.8473C18.5543 17.7848 18.9454 18.4761 19.0083 18.9401C19.0547 19.2874 18.8526 19.8366 18.5709 20.1239C18.2593 20.4459 17.918 20.5942 17.5004 20.5942C17.0729 20.5942 16.7647 20.4617 16.4465 20.1397C16.1548 19.8461 15.9427 19.2937 15.9891 18.9464C16.0521 18.495 16.4763 17.7437 17.1822 16.8473C17.3479 16.6326 17.4905 16.459 17.5004 16.459C17.5103 16.459 17.6528 16.6326 17.8186 16.8473Z"
            fill="#E8AA14" />
        <path
            d="M24.3209 17.8005C24.8346 17.9362 25.2787 18.4192 25.4908 19.0789C25.5935 19.3851 25.6001 19.8934 25.5107 20.1396C25.4311 20.3637 25.282 20.5689 25.1295 20.6699C25.0599 20.7141 24.7318 20.8467 24.4004 20.9603L23.7972 21.1718L22.6207 20.7646C21.9745 20.5405 21.4442 20.3511 21.4475 20.3416C21.4475 20.3321 21.5436 20.2564 21.6629 20.168C21.9546 19.9533 22.5279 19.4009 22.7732 19.0947C22.972 18.8485 23.1808 18.4823 23.3299 18.1256C23.4029 17.952 23.4095 17.9457 23.6282 17.8699C23.9298 17.7626 24.1088 17.7437 24.3209 17.8005Z"
            fill="#E8AA14" />
        <path
            d="M11.1539 17.8005C11.4224 17.8731 11.6477 17.9646 11.6743 18.0088C11.6908 18.0341 11.7538 18.1761 11.8201 18.3276C12.0123 18.7791 12.2973 19.1515 12.8375 19.6756C14.0936 20.8877 15.7175 21.538 17.5072 21.5412C18.3954 21.5412 19.1576 21.4086 19.9365 21.115L20.3209 20.9698L21.7858 21.478C22.5911 21.759 23.2606 21.9957 23.2738 22.002C23.2871 22.0115 23.1976 22.1157 23.0717 22.2325C22.6872 22.6018 22.432 23.0153 22.2498 23.5835C22.1669 23.8392 22.1603 23.9055 22.157 24.4169V24.9725L21.9581 24.903C21.8488 24.862 20.4999 24.3948 18.9588 23.8613C10.9882 21.0961 9.99066 20.7488 9.87135 20.6699C9.5797 20.4774 9.43056 20.1301 9.43056 19.6471C9.43388 19.2652 9.50679 18.9874 9.70564 18.6212C9.86803 18.3182 10.2624 17.9425 10.511 17.8541C10.7695 17.7626 10.9584 17.7468 11.1539 17.8005Z"
            fill="#E8AA14" />
        <path
            d="M24.9011 22.5639C25.3916 22.7375 25.66 23.3215 25.554 23.9876C25.4247 24.8146 24.8083 25.5186 24.1653 25.5722C23.761 25.607 23.4892 25.4491 23.2838 25.064L23.1512 24.8146V24.4011C23.1545 24.0381 23.1644 23.956 23.244 23.7319C23.413 23.2489 23.7908 22.807 24.1819 22.6302C24.4039 22.5292 24.7221 22.5008 24.9011 22.5639Z"
            fill="#E8AA14" />
        <path
            d="M10.7461 22.5954C11.0941 22.7311 11.4189 23.0405 11.6178 23.4224C11.9658 24.0948 11.9426 24.8682 11.5614 25.2786C11.3692 25.4901 11.2068 25.5627 10.9185 25.5627C10.7196 25.5627 10.65 25.5501 10.4678 25.4617C9.64252 25.0766 9.18517 23.877 9.54973 23.0657C9.63921 22.8637 9.88446 22.627 10.0667 22.5701C10.2855 22.4975 10.5241 22.507 10.7461 22.5954Z"
            fill="#E8AA14" />
        <path
            d="M14.1433 23.1952C15.7208 23.7444 16.082 23.877 16.0058 23.877C15.9992 23.877 15.2833 24.1232 14.415 24.4231L12.8408 24.9692L12.854 24.5399C12.8772 23.8802 12.7314 23.3372 12.3967 22.8038C12.3105 22.6649 12.2542 22.5512 12.2741 22.5544C12.2973 22.5544 13.1358 22.8448 14.1433 23.1952Z"
            fill="#E8AA14" />
    </g>
    <defs>
        <filter id="filter0_d_29_103" x="5.42297" y="9.42303" width="24.154" height="24.1539"
            filterUnits="userSpaceOnUse" color-interpolation-filters="sRGB">
            <feFlood flood-opacity="0" result="BackgroundImageFix" />
            <feColorMatrix in="SourceAlpha" type="matrix" values="0 0 0 0 0 0 0 0 0 0 0 0 0 0 0 0 0 0 127 0"
                result="hardAlpha" />
            <feOffset dy="4" />
            <feGaussianBlur stdDeviation="2" />
            <feComposite in2="hardAlpha" operator="out" />
            <feColorMatrix type="matrix" values="0 0 0 0 0 0 0 0 0 0 0 0 0 0 0 0 0 0 0.25 0" />
            <feBlend mode="normal" in2="BackgroundImageFix" result="effect1_dropShadow_29_103" />
            <feBlend mode="normal" in="SourceGraphic" in2="effect1_dropShadow_29_103" result="shape" />
        </filter>
    </defs>
</svg>