<svg width="36" height="35" viewBox="0 0 36 35" fill="none" xmlns="http://www.w3.org/2000/svg">
    <rect x="0.153839" width="35" height="35" rx="5" fill="white" />
    <g filter="url(#filter0_d_30_140)">
        <path
            d="M18.4337 9.44516C18.1809 9.48939 17.8903 9.64736 17.6881 9.84956C16.9614 10.5762 17.1605 11.7799 18.0767 12.2128C18.6643 12.4908 19.312 12.3771 19.7638 11.9158C20.0387 11.6378 20.1808 11.2871 20.1808 10.8985C20.1808 9.96645 19.3657 9.29035 18.4337 9.44516Z"
            fill="#E8AA14" />
        <path
            d="M14.9837 12.5887C14.8794 12.6171 14.6582 12.7024 14.4939 12.7846C14.2444 12.9078 14.1464 12.9805 13.9253 13.2016C13.2523 13.8777 12.6141 14.8414 12.374 15.5427C12.2887 15.7923 12.2697 15.8934 12.2697 16.1272C12.2666 16.3831 12.2761 16.4274 12.3519 16.5601C12.513 16.8318 12.81 17.0276 13.3408 17.2172C13.7262 17.3531 14.0864 17.3783 14.336 17.2836C14.5319 17.2077 14.7214 17.0466 14.8067 16.876C14.8383 16.8096 15.1132 15.9914 15.4133 15.053C16.0231 13.1511 16.0547 13.0089 15.9093 12.7972C15.8683 12.7372 15.7893 12.6614 15.7356 12.6266C15.5966 12.5476 15.2301 12.5287 14.9837 12.5887Z"
            fill="#E8AA14" />
        <path
            d="M16.8982 13.0342C16.8287 13.0943 16.7498 13.2048 16.7245 13.2775C16.6202 13.5682 15.5997 17.312 15.565 17.5332C15.546 17.6627 15.5366 17.906 15.5429 18.0703C15.5555 18.3294 15.5745 18.402 15.6692 18.6074C15.7293 18.7369 15.8493 18.9296 15.9346 19.0307C16.0199 19.135 16.6645 19.7005 17.369 20.2913C18.0735 20.8821 18.6801 21.3971 18.7212 21.4319L18.7907 21.5014L18.6454 22.9041C18.4495 24.8093 18.4621 25.1789 18.7307 25.3779C18.7781 25.4095 18.8792 25.4443 18.9582 25.4538C19.0909 25.4696 19.1067 25.4632 19.2267 25.3369C19.451 25.1062 19.5142 24.8882 19.8839 22.9768C20.165 21.533 20.2219 21.1918 20.2251 20.9295C20.2282 20.7368 20.2124 20.5662 20.184 20.4872C20.1493 20.3893 19.9091 20.127 19.0687 19.2835L17.9977 18.2093L18.3863 16.6233C18.598 15.7513 18.7781 15.0373 18.7876 15.0373C18.8002 15.0373 19.1414 15.2806 19.549 15.5807C20.3925 16.1936 20.5284 16.2694 20.7843 16.2694C20.9549 16.2694 20.9896 16.2536 21.4478 15.9756C21.7163 15.8145 21.9722 15.6565 22.0228 15.6249L22.1081 15.5681V20.443C22.1081 24.2658 22.1175 25.3369 22.1491 25.4001C22.1713 25.4443 22.2408 25.5043 22.3103 25.5391C22.4714 25.6181 22.6515 25.5707 22.7399 25.4222C22.8031 25.3242 22.8031 25.22 22.8031 20.2345V15.1479L23.0812 14.9425C23.5519 14.5887 23.6688 14.3169 23.4476 14.0863C23.3213 13.9536 23.1728 13.9189 22.9706 13.9726L22.8095 14.0168L22.7968 13.6219L22.7873 13.2301L22.6831 13.1385C22.5346 13.0026 22.3608 13.009 22.2155 13.1543L22.1081 13.2617V13.802V14.3454L21.6752 14.5507C21.4351 14.6645 21.1729 14.7845 21.0939 14.8193L20.9486 14.8825L19.9565 14.159C19.41 13.7609 18.9361 13.4197 18.8981 13.4007C18.7812 13.3407 17.2426 12.9205 17.132 12.9205C17.0499 12.9205 16.9899 12.9489 16.8982 13.0342Z"
            fill="#E8AA14" />
        <path
            d="M15.3375 19.5393C15.328 19.5741 15.268 19.9848 15.2017 20.4556L15.0816 21.3086L14.6646 22.2564C14.4371 22.7777 14.1306 23.4538 13.9885 23.7571C13.4577 24.8882 13.4166 25.2199 13.802 25.2641C14.0011 25.2863 14.2096 25.182 14.4624 24.9261C14.7214 24.667 14.9047 24.408 15.6345 23.2674C16.5254 21.8741 16.5318 21.8615 16.6866 21.3591L16.8224 20.9168L16.4686 20.6483C16.2758 20.4998 16.0136 20.285 15.8872 20.1681C15.6787 19.9753 15.407 19.6373 15.3723 19.5235C15.3596 19.4888 15.3533 19.492 15.3375 19.5393Z"
            fill="#E8AA14" />
    </g>
    <defs>
        <filter id="filter0_d_30_140" x="8.26923" y="9.42303" width="19.2864" height="24.1539"
            filterUnits="userSpaceOnUse" color-interpolation-filters="sRGB">
            <feFlood flood-opacity="0" result="BackgroundImageFix" />
            <feColorMatrix in="SourceAlpha" type="matrix" values="0 0 0 0 0 0 0 0 0 0 0 0 0 0 0 0 0 0 127 0"
                result="hardAlpha" />
            <feOffset dy="4" />
            <feGaussianBlur stdDeviation="2" />
            <feComposite in2="hardAlpha" operator="out" />
            <feColorMatrix type="matrix" values="0 0 0 0 0 0 0 0 0 0 0 0 0 0 0 0 0 0 0.25 0" />
            <feBlend mode="normal" in2="BackgroundImageFix" result="effect1_dropShadow_30_140" />
            <feBlend mode="normal" in="SourceGraphic" in2="effect1_dropShadow_30_140" result="shape" />
        </filter>
    </defs>
</svg>