<svg width="36" height="35" viewBox="0 0 36 35" fill="none" xmlns="http://www.w3.org/2000/svg">
    <rect x="0.307678" width="35" height="35" rx="5" fill="white" />
    <g filter="url(#filter0_d_30_150)">
        <path
            d="M17.5395 9.49885C16.9558 9.77018 16.5488 10.8681 16.3848 12.6255C16.3343 13.1587 16.3311 14.5879 16.3816 15.1338C16.5299 16.7334 16.9621 19.6613 17.306 21.3713L17.3376 21.5385H17.8077H18.2778L18.3093 21.3713C18.6375 19.7338 19.0823 16.7744 19.2117 15.3546C19.4041 13.225 19.1833 11.171 18.6532 10.1393C18.4261 9.70077 18.0979 9.42313 17.8077 9.42313C17.7477 9.42313 17.6247 9.45783 17.5395 9.49885Z"
            fill="#E8AA14" />
        <path
            d="M16.6719 9.62505C15.4792 10.0478 14.6337 11.1521 14.3403 12.6728C14.2425 13.1934 14.1983 13.8907 14.2393 14.3418C14.375 15.8279 15.0754 17.9449 16.533 21.264L16.6529 21.5385H16.8201C16.9779 21.5385 16.9874 21.5354 16.9716 21.4659C16.8896 21.1031 16.5267 18.9419 16.3721 17.9039C16.1008 16.0613 15.9998 14.9792 15.9998 13.8875C15.9998 11.903 16.3059 10.4264 16.8801 9.61874C16.9432 9.53356 16.9274 9.53356 16.6719 9.62505Z"
            fill="#E8AA14" />
        <path
            d="M18.71 9.58719C18.7258 9.60928 18.7763 9.68815 18.8268 9.76072C19.136 10.2214 19.401 11.1205 19.5272 12.1333C19.7165 13.6793 19.6408 15.2253 19.2432 17.9071C19.0918 18.9072 18.7163 21.1441 18.6438 21.4659C18.628 21.5354 18.6375 21.5385 18.7952 21.5385H18.9624L19.0823 21.264C20.5778 17.8534 21.2877 15.6859 21.3887 14.203C21.4139 13.8244 21.3634 13.1366 21.2751 12.6791C20.9817 11.1553 20.1645 10.0794 18.953 9.62505C18.7258 9.53987 18.6753 9.53356 18.71 9.58719Z"
            fill="#E8AA14" />
        <path
            d="M20.0194 9.81751C20.2024 9.95318 20.6125 10.376 20.7734 10.5905C21.5969 11.7137 21.9187 13.3985 21.6253 15.0675C21.3887 16.3895 20.6946 18.4182 19.666 20.7876C19.4925 21.182 19.3537 21.5133 19.3537 21.5227C19.3537 21.5322 19.3884 21.5385 19.4325 21.5385C19.4988 21.5385 19.5556 21.4691 19.7891 21.1189C21.0921 19.1722 22.2532 17.0426 22.7327 15.7332C23.0167 14.9476 23.1208 14.4617 23.1176 13.8875C23.1113 12.635 22.6191 11.5181 21.7263 10.7356C21.4865 10.5242 21.0353 10.2182 20.7608 10.0794C20.5968 9.99735 19.9657 9.73863 19.9247 9.73863C19.9153 9.73863 19.9594 9.77334 20.0194 9.81751Z"
            fill="#E8AA14" />
        <path
            d="M15.2489 9.90585C13.5137 10.6157 12.5072 12.0702 12.4977 13.8875C12.4946 14.3261 12.5419 14.6384 12.6839 15.1243C13.0499 16.3958 13.9648 18.2068 15.3404 20.3711C15.9778 21.3713 16.0976 21.5385 16.1828 21.5385C16.227 21.5385 16.2617 21.529 16.2617 21.5164C16.2617 21.5038 16.126 21.182 15.9588 20.7971C14.8388 18.232 14.1636 16.2128 13.9427 14.7709C13.8796 14.3702 13.8733 13.5405 13.927 13.0988C14.0406 12.168 14.3119 11.3856 14.7441 10.7325C14.905 10.4864 15.2805 10.0794 15.514 9.89008C15.5991 9.82382 15.6496 9.77018 15.6244 9.77018C15.6023 9.77018 15.4319 9.83328 15.2489 9.90585Z"
            fill="#E8AA14" />
        <path
            d="M16.0882 21.9676C15.9778 22.0874 15.9809 22.242 16.1008 22.3619L16.1923 22.4534H17.8077H19.4231L19.5146 22.3619C19.6345 22.242 19.6376 22.0874 19.5272 21.9676L19.4515 21.8855H17.8077H16.1639L16.0882 21.9676Z"
            fill="#E8AA14" />
        <path
            d="M16.7034 23.116L16.6056 23.4315H16.4952C16.4131 23.4315 16.3595 23.4568 16.2869 23.5262L16.1923 23.624L16.2049 24.1193C16.2144 24.5989 16.2175 24.621 16.3153 24.8261C16.492 25.2047 16.8107 25.4602 17.2019 25.5423C17.4164 25.5864 18.1989 25.5864 18.4134 25.5423C18.8047 25.4602 19.1233 25.2047 19.3 24.8261C19.3978 24.621 19.401 24.5989 19.4104 24.1193L19.4231 23.624L19.3284 23.5262C19.259 23.4568 19.2022 23.4315 19.1202 23.4315H19.0097L18.9119 23.116L18.8141 22.8005H18.5964C18.4734 22.8005 18.3756 22.81 18.3756 22.8226C18.3756 22.8384 18.4103 22.9614 18.4545 23.1002C18.4986 23.2391 18.5333 23.3716 18.5333 23.3905C18.5333 23.4221 18.3661 23.4315 17.8077 23.4315C17.2492 23.4315 17.082 23.4221 17.082 23.3905C17.082 23.3716 17.1167 23.2422 17.1609 23.1066C17.2051 22.9709 17.2398 22.8478 17.2398 22.8321C17.2398 22.8131 17.142 22.8005 17.0221 22.8005H16.8044L16.7034 23.116Z"
            fill="#E8AA14" />
    </g>
    <defs>
        <filter id="filter0_d_30_150" x="8.49759" y="9.42316" width="18.6201" height="24.1522"
            filterUnits="userSpaceOnUse" color-interpolation-filters="sRGB">
            <feFlood flood-opacity="0" result="BackgroundImageFix" />
            <feColorMatrix in="SourceAlpha" type="matrix" values="0 0 0 0 0 0 0 0 0 0 0 0 0 0 0 0 0 0 127 0"
                result="hardAlpha" />
            <feOffset dy="4" />
            <feGaussianBlur stdDeviation="2" />
            <feComposite in2="hardAlpha" operator="out" />
            <feColorMatrix type="matrix" values="0 0 0 0 0 0 0 0 0 0 0 0 0 0 0 0 0 0 0.25 0" />
            <feBlend mode="normal" in2="BackgroundImageFix" result="effect1_dropShadow_30_150" />
            <feBlend mode="normal" in="SourceGraphic" in2="effect1_dropShadow_30_150" result="shape" />
        </filter>
    </defs>
</svg>