<svg width="36" height="35" viewBox="0 0 36 35" fill="none" xmlns="http://www.w3.org/2000/svg">
    <rect x="0.230774" width="35" height="35" rx="5" fill="white" />
    <g filter="url(#filter0_d_29_129)">
        <path
            d="M11.6102 9.47097C11.544 9.49936 11.1496 9.86848 10.6101 10.408C9.6542 11.3702 9.61949 11.4144 9.66682 11.6825C9.6889 11.7866 9.80879 11.9223 10.6575 12.7741C11.768 13.891 12.0298 14.1086 12.6072 14.3989C13.0772 14.6355 13.8344 14.8469 14.2067 14.8469H14.3644L14.7556 15.2318L15.1437 15.6198L14.8345 15.9669C13.1593 17.8598 11.7364 20.4531 10.954 23.0496C10.7174 23.8414 10.6764 24.0307 10.7205 24.1822C10.7679 24.3336 10.9382 24.4914 11.0897 24.5197C11.2253 24.545 11.6386 24.444 12.4116 24.2011C14.9292 23.4061 17.4215 22.0211 19.2608 20.3932L19.6078 20.0871L19.9833 20.4594L20.3556 20.8317L20.3808 21.0809C20.4376 21.6046 20.5985 22.1599 20.8288 22.6205C21.119 23.1979 21.3367 23.4597 22.4535 24.5702C23.3054 25.4189 23.441 25.5388 23.5451 25.5609C23.8165 25.6082 23.8575 25.5766 24.8355 24.6018C25.8103 23.6238 25.8419 23.5827 25.7946 23.3114C25.7725 23.2073 25.6526 23.0717 24.8039 22.2198C23.6934 21.103 23.4316 20.8853 22.8542 20.5951C22.3841 20.3585 21.627 20.1471 21.2547 20.1471H21.097L20.7057 19.759L20.3177 19.3741L20.6269 19.0271C22.2516 17.1941 23.6398 14.6986 24.4348 12.1779C24.6777 11.4049 24.7787 10.9916 24.7535 10.856C24.7251 10.7108 24.5736 10.5373 24.4285 10.49C24.2928 10.4458 24.1698 10.4648 23.6619 10.6067C20.9171 11.3765 18.1945 12.8372 16.2006 14.6008L15.8535 14.9068L15.4781 14.5345L15.1058 14.1623L15.0806 13.913C15.0238 13.3893 14.8629 12.8341 14.6326 12.3735C14.4812 12.0737 14.3991 11.9412 14.1625 11.6289C13.9322 11.326 12.0961 9.49621 11.9793 9.45204C11.8595 9.40787 11.7427 9.41418 11.6102 9.47097ZM19.876 14.9447C20.1915 15.0867 20.3492 15.3485 20.3492 15.7302C20.3492 16.03 20.2893 16.2729 20.1284 16.6073C19.9391 17.008 19.5416 17.5916 19.1756 18.0112L19.0715 18.1311L18.7276 17.7841L18.3838 17.437L18.5226 17.2635C18.9422 16.7367 19.2072 16.3139 19.3239 15.9858L19.3681 15.8596L19.2419 15.9038C18.9138 16.0205 18.491 16.2855 17.9642 16.7051L17.7906 16.8439L17.4436 16.5L17.0966 16.1562L17.2164 16.052C17.819 15.5283 18.6014 15.0488 19.0557 14.9289C19.3208 14.8595 19.7025 14.8658 19.876 14.9447ZM16.9388 17.7304C16.5192 18.2573 16.2542 18.6801 16.1375 19.0082L16.0933 19.1344L16.2195 19.0902C16.5476 18.9735 16.9704 18.7085 17.4972 18.2889L17.6708 18.15L18.0178 18.4939L18.3648 18.8378L18.2449 18.9419C17.8253 19.3079 17.2417 19.7054 16.841 19.8947C15.8662 20.3585 15.1121 20.084 15.1121 19.2637C15.1121 19.1312 15.1342 18.9388 15.1595 18.8378C15.2762 18.3803 15.7147 17.6547 16.2447 17.0301L16.3867 16.8629L16.7338 17.2099L17.0808 17.5569L16.9388 17.7304Z"
            fill="#E8AA14" />
    </g>
    <defs>
        <filter id="filter0_d_29_129" x="5.65384" y="9.42303" width="24.1538" height="24.1509"
            filterUnits="userSpaceOnUse" color-interpolation-filters="sRGB">
            <feFlood flood-opacity="0" result="BackgroundImageFix" />
            <feColorMatrix in="SourceAlpha" type="matrix" values="0 0 0 0 0 0 0 0 0 0 0 0 0 0 0 0 0 0 127 0"
                result="hardAlpha" />
            <feOffset dy="4" />
            <feGaussianBlur stdDeviation="2" />
            <feComposite in2="hardAlpha" operator="out" />
            <feColorMatrix type="matrix" values="0 0 0 0 0 0 0 0 0 0 0 0 0 0 0 0 0 0 0.25 0" />
            <feBlend mode="normal" in2="BackgroundImageFix" result="effect1_dropShadow_29_129" />
            <feBlend mode="normal" in="SourceGraphic" in2="effect1_dropShadow_29_129" result="shape" />
        </filter>
    </defs>
</svg>