<svg width="36" height="35" viewBox="0 0 36 35" fill="none" xmlns="http://www.w3.org/2000/svg">
    <rect x="0.0769348" width="35" height="35" rx="5" fill="white" />
    <g filter="url(#filter0_d_29_114)">
        <path
            d="M20.243 12.4551C19.3122 12.6475 18.6654 12.9693 18.1259 13.5057C17.7946 13.8401 17.6337 14.0704 17.4854 14.4301C17.3214 14.834 17.2772 15.0737 17.2772 15.5912C17.2804 16.0203 17.2898 16.0991 17.3813 16.4493C17.4381 16.6607 17.4823 16.8406 17.4823 16.8469C17.4823 16.8563 17.4318 16.8721 17.3719 16.8816C17.1636 16.9226 13.6773 18.1688 13.4628 18.2824C12.958 18.5475 12.5383 19.1438 12.4752 19.6864L12.4563 19.841L12.6992 19.677C13.2703 19.2952 13.8256 19.1154 14.5165 19.087C15.4851 19.0491 16.3181 19.3678 17.0595 20.065C17.1952 20.1944 17.3403 20.308 17.3813 20.3206C17.5233 20.3648 17.6432 20.3048 17.883 20.0713C18.2963 19.6612 18.8831 19.3299 19.4447 19.1879L19.7381 19.1154L19.7634 18.9797C19.817 18.6926 19.7571 18.4307 19.3375 17.0425C18.9589 15.7836 18.9305 15.6732 18.9462 15.4934C19.0062 14.7709 19.5205 14.3418 20.6058 14.1083C20.8235 14.061 21.0601 13.9884 21.1327 13.9474C21.4135 13.7865 21.5744 13.4741 21.5428 13.146C21.5176 12.8463 21.3378 12.5907 21.0633 12.4645C20.8708 12.373 20.6468 12.3699 20.243 12.4551Z"
            fill="#E8AA14" />
        <path
            d="M21.527 14.8813C21.1484 14.9822 20.8771 15.1432 20.5742 15.446C20.1735 15.8499 20.0095 16.219 19.9811 16.7775C19.9558 17.3643 20.1294 17.8754 20.4953 18.2793C21.4892 19.3804 23.2623 19.128 23.9028 17.7997C24.0669 17.459 24.1142 17.2413 24.111 16.8563C24.1016 15.5281 22.8175 14.5437 21.527 14.8813Z"
            fill="#E8AA14" />
        <path
            d="M14.059 19.6896C13.4627 19.8284 13.0337 20.0619 12.5825 20.4941C12.2512 20.8128 12.1124 20.8853 11.8379 20.8885C11.5255 20.8917 11.3646 20.8159 11.046 20.5162C10.6264 20.1187 10.213 19.8757 9.72716 19.7432L9.5 19.6801V20.5604V21.4438L9.58834 21.4974C9.63567 21.5258 9.78395 21.6552 9.91647 21.7782C10.213 22.0622 10.3708 22.1758 10.6358 22.3114C11.352 22.6743 12.2449 22.6774 12.9548 22.3209C13.2293 22.1821 13.3649 22.0811 13.6836 21.7845C13.9959 21.4911 14.1632 21.3965 14.4503 21.346C14.8636 21.2734 15.2043 21.4028 15.605 21.7877C15.9079 22.0811 16.0783 22.201 16.419 22.3588C16.7598 22.5165 17.069 22.5828 17.4633 22.5828C17.8167 22.5828 18.0092 22.5512 18.3057 22.4534C18.697 22.3209 18.9178 22.1789 19.328 21.8003C19.6403 21.51 19.8328 21.3996 20.1167 21.346C20.5458 21.2671 20.8645 21.3965 21.3346 21.8413C21.8678 22.343 22.3663 22.5701 23.0194 22.6017C23.8113 22.6427 24.4392 22.3935 25.0449 21.8003C25.1995 21.6457 25.3699 21.5132 25.4772 21.4596L25.6538 21.3744V20.5257C25.6538 19.8663 25.6444 19.677 25.616 19.677C25.4866 19.677 25.0071 19.8221 24.7831 19.9262C24.436 20.0903 24.2719 20.207 23.9438 20.5194C23.6157 20.8349 23.4548 20.9169 23.1614 20.9169C22.8616 20.9169 22.7165 20.838 22.3316 20.4752C21.9782 20.1408 21.7353 19.9798 21.363 19.8379C21.0222 19.7054 20.6878 19.6454 20.306 19.6454C19.511 19.6454 18.8642 19.9136 18.2521 20.5004C17.8672 20.8696 17.5832 20.9705 17.2204 20.8633C17.0753 20.8222 16.9932 20.7655 16.7503 20.5414C16.5894 20.39 16.3749 20.2133 16.2707 20.1439C16.0341 19.9798 15.6303 19.7937 15.3684 19.7243C15.0907 19.6517 14.3178 19.6296 14.059 19.6896Z"
            fill="#E8AA14" />
    </g>
    <defs>
        <filter id="filter0_d_29_114" x="5.5" y="12.3934" width="24.1538" height="18.2126" filterUnits="userSpaceOnUse"
            color-interpolation-filters="sRGB">
            <feFlood flood-opacity="0" result="BackgroundImageFix" />
            <feColorMatrix in="SourceAlpha" type="matrix" values="0 0 0 0 0 0 0 0 0 0 0 0 0 0 0 0 0 0 127 0"
                result="hardAlpha" />
            <feOffset dy="4" />
            <feGaussianBlur stdDeviation="2" />
            <feComposite in2="hardAlpha" operator="out" />
            <feColorMatrix type="matrix" values="0 0 0 0 0 0 0 0 0 0 0 0 0 0 0 0 0 0 0.25 0" />
            <feBlend mode="normal" in2="BackgroundImageFix" result="effect1_dropShadow_29_114" />
            <feBlend mode="normal" in="SourceGraphic" in2="effect1_dropShadow_29_114" result="shape" />
        </filter>
    </defs>
</svg>