<svg width="36" height="35" viewBox="0 0 36 35" fill="none" xmlns="http://www.w3.org/2000/svg">
    <rect x="0.384613" width="35" height="35" rx="5" fill="white" />
    <g filter="url(#filter0_d_33_38)">
        <path
            d="M21.5178 15.4361C21.5178 15.9473 21.5272 17.5818 21.5399 19.0681L21.5588 21.7724H23.4742C25.2571 21.7724 25.3928 21.7692 25.437 21.7156C25.5222 21.6241 26.1312 20.4376 26.147 20.3366C26.1817 20.1315 25.9134 19.9674 25.7336 20.0842C25.6831 20.1189 25.5695 20.2988 25.4275 20.5859C25.3044 20.8289 25.1971 21.0372 25.1877 21.0435C25.1719 21.0624 24.9447 20.8036 24.5881 20.3587C23.5436 19.0586 22.5023 17.1022 21.6913 14.9249C21.6093 14.7071 21.5399 14.5241 21.5304 14.5178C21.5241 14.5115 21.5178 14.9217 21.5178 15.4361Z"
            fill="#E8AA14" />
        <path
            d="M20.8582 14.887C19.8169 17.8942 18.5799 20.2009 17.3335 21.4474L17.0116 21.7724H19.0122H21.0129L21.0097 19.8065C21.0066 18.7273 20.9939 17.1085 20.9845 16.2123L20.9655 14.5809L20.8582 14.887Z"
            fill="#E8AA14" />
        <path
            d="M14.4967 13.0789C14.4178 13.1546 14.4178 13.1578 14.4178 13.7699V14.3853L14.2726 14.7734C13.2975 17.3925 12.0543 19.715 11.0729 20.7405L10.7731 21.0529L10.65 20.6964C10.5144 20.3051 10.4102 20.1631 10.2682 20.1631C10.1672 20.1631 10 20.3208 10 20.4155C10 20.4534 10.0915 20.75 10.2051 21.0719C10.3471 21.4821 10.4323 21.6777 10.4828 21.7156C10.5459 21.7661 10.7573 21.7724 13.5563 21.7724C15.9482 21.7724 16.5604 21.7629 16.5478 21.7314C16.3963 21.2833 16.1533 20.4408 16.1533 20.365C16.1533 20.1883 16.3584 20.1 16.4878 20.2199C16.5225 20.2546 16.614 20.4849 16.7024 20.7721C16.7876 21.0435 16.8665 21.2675 16.8791 21.2675C16.8917 21.2675 17.0243 21.1413 17.1726 20.9867C18.2896 19.8286 19.5266 17.4398 20.508 14.5525L20.631 14.1991H17.791H14.9542V13.71C14.9542 13.0852 14.9195 13 14.6671 13C14.6103 13 14.544 13.0315 14.4967 13.0789Z"
            fill="#E8AA14" />
    </g>
    <defs>
        <filter id="filter0_d_33_38" x="6" y="13" width="24.15" height="16.7724" filterUnits="userSpaceOnUse"
            color-interpolation-filters="sRGB">
            <feFlood flood-opacity="0" result="BackgroundImageFix" />
            <feColorMatrix in="SourceAlpha" type="matrix" values="0 0 0 0 0 0 0 0 0 0 0 0 0 0 0 0 0 0 127 0"
                result="hardAlpha" />
            <feOffset dy="4" />
            <feGaussianBlur stdDeviation="2" />
            <feComposite in2="hardAlpha" operator="out" />
            <feColorMatrix type="matrix" values="0 0 0 0 0 0 0 0 0 0 0 0 0 0 0 0 0 0 0.25 0" />
            <feBlend mode="normal" in2="BackgroundImageFix" result="effect1_dropShadow_33_38" />
            <feBlend mode="normal" in="SourceGraphic" in2="effect1_dropShadow_33_38" result="shape" />
        </filter>
    </defs>
</svg>